<svg width="25" height="24" viewBox="0 0 25 24" fill="none" xmlns="http://www.w3.org/2000/svg">
<g id="mingcute:right-line" clip-path="url(#clip0_229_1551)">
<g id="Group">
<path id="Vector" fill-rule="evenodd" clip-rule="evenodd" d="M16.2069 11.2932C16.3943 11.4807 16.4996 11.735 16.4996 12.0002C16.4996 12.2653 16.3943 12.5197 16.2069 12.7072L10.5499 18.3642C10.4576 18.4597 10.3473 18.5359 10.2253 18.5883C10.1033 18.6407 9.97204 18.6683 9.83926 18.6694C9.70648 18.6706 9.5748 18.6453 9.4519 18.595C9.329 18.5447 9.21735 18.4705 9.12346 18.3766C9.02957 18.2827 8.95531 18.171 8.90503 18.0481C8.85475 17.9252 8.82945 17.7936 8.8306 17.6608C8.83176 17.528 8.85934 17.3968 8.91175 17.2748C8.96416 17.1528 9.04034 17.0424 9.13585 16.9502L14.0859 12.0002L9.13585 7.05018C8.9537 6.86158 8.8529 6.60898 8.85518 6.34678C8.85746 6.08458 8.96263 5.83377 9.14804 5.64836C9.33344 5.46295 9.58426 5.35778 9.84645 5.35551C10.1087 5.35323 10.3613 5.45402 10.5499 5.63618L16.2069 11.2932Z" fill="black"/>
</g>
</g>
<defs>
<clipPath id="clip0_229_1551">
<rect width="24" height="24" fill="white" transform="translate(0.5)"/>
</clipPath>
</defs>
</svg>
